<?xml version="1.0" standalone="no"?>
<!DOCTYPE svg PUBLIC "-//W3C//DTD SVG 1.1//EN" "http://www.w3.org/Graphics/SVG/1.1/DTD/svg11.dtd">
<svg width="500px" height="280px"
     viewBox="0 0 570 290" preserveAspectRatio="none"
	 xmlns="http://www.w3.org/2000/svg" version="1.1"
	 xmlns:xlink="http://www.w3.org/1999/xlink">
<style>
text {
	font-family : Verdana, Tahoma, sans-serif;
	font-size : 11px;
	fill : black;
	stroke : none;
}
/* As at 20060630, Wikipedia's SVG rasteriser couldn't make use of these styles. Leave them in in case it improves. */
#percentage_numbers text {
	text-anchor : end;
}
#x_axis_numbers text {
	text-anchor : middle;
}
</style>
<desc>NASDAQ Composite</desc>
<defs>
	<!-- The lines in the graph are scaled significantly. Make sure the stroke width is set appropriately. -->
	<line id="horizontal_line" x1="1994" x2="2005" y1="0" y2="0" stroke="#000" stroke-width="3" />
	<line id="vertical_line" x1="0" x2="0" y1="-50" y2="5000" stroke="#666" stroke-width=".01" />
</defs>
<!--

	NOTES: I intentionally let this run off the chart, since some of the data is a little superfluous.

	ORDER OF TRANSFORMATIONS:
	(1)	Shift origin from (x, y) to (0, 0) (e.g., from [2004, 0] to [0, 0])
	(2)	Scale as appropriate
	(3)	Shift back to viewport's origin
	(4)	Shift away from edge as desired
	
	In working out your calculations, opt for a number that divides nicely into 100s (e.g., 1, 2, 2.5, 5, 10, 20, 25, etc.)
	
	CALCULATIONS:
	Horizontal	=	Width/Range
				=	800/ 2010-1900
				~	 7
	Vertical	=	[-1 * Height]/Range
				=	-250 / (13000 - 0) 
				~	-.02
-->
<g transform="translate(60 -45)">	
	<g transform="translate(0 290) scale(45 -.045) translate(-1994 0)">

		<!-- Plot -->
		<path fill="#888" stroke="black" stroke-width=".00" d="
			M	2005	0
			L	2004.998858	2178.98
			L	2004.996119	2177.47
			L	2004.993379	2170.99
			L	2004.990639	2156.75
			L	2004.9879	2168.82
			L	2004.976941	2153.31
			L	2004.974201	2145.99
			L	2004.971461	2134.75
			L	2004.968721	2142.21
			L	2004.960502	2142.71
			L	2004.957763	2159.96
			L	2004.955023	2159.68
			L	2004.952283	2145.05
			L	2004.949543	2141.2
			L	2004.941324	2121.15
			L	2004.938584	2109.55
			L	2004.935845	2118.14
			L	2004.933105	2154.13
			L	2004.930365	2145.43
			L	2004.922146	2153.29
			L	2004.919406	2133.95
			L	2004.916667	2104.58
			L	2004.912785	2104.67
			L	2004.910046	2110.91
			L	2004.901826	2101.81
			L	2004.896347	2091.79
			L	2004.893607	2082.47
			L	2004.890868	2066.34
			L	2004.882648	2100.45
			L	2004.879909	2096.19
			L	2004.877169	2090.94
			L	2004.874429	2087.07
			L	2004.871689	2082.59
			L	2004.86347	2065.32
			L	2004.860731	2041.34
			L	2004.857991	2039.58
			L	2004.855251	2039.03
			L	2004.852511	2038.22
			L	2004.844292	2035.04
			L	2004.841553	1998.15
			L	2004.838813	2014.45
			L	2004.836073	1981.47
			L	2004.833333	1975.48
			L	2004.826712	1974.55
			L	2004.823973	1963.36
			L	2004.821233	1928
			L	2004.818493	1915.15
			L	2004.815753	1911.08
			L	2004.807534	1952.36
			L	2004.804795	1940.11
			L	2004.802055	1920.06
			L	2004.799315	1944.41
			L	2004.796575	1909.78
			L	2004.788356	1907.93
			L	2004.785616	1920.58
			L	2004.782877	1944.96
			L	2004.780137	1913.7
			L	2004.777397	1924.41
			L	2004.769178	1940.67
			L	2004.766438	1967.37
			L	2004.763699	1953.91
			L	2004.760959	1950.23
			L	2004.758219	1954.59
			L	2004.75	1909.59
			L	2004.746119	1892.6
			L	2004.743379	1870.61
			L	2004.740639	1865.88
			L	2004.7379	1871.16
			L	2004.72968	1888.89
			L	2004.726941	1887.02
			L	2004.724201	1910.23
			L	2004.721461	1913.13
			L	2004.718721	1903.02
			L	2004.710502	1907.01
			L	2004.707763	1898.83
			L	2004.705023	1908.38
			L	2004.702283	1909.2
			L	2004.699543	1900.17
			L	2004.691324	1870.33
			L	2004.688584	1858.51
			L	2004.685845	1855.25
			L	2004.683105	1856
			L	2004.672146	1857.61
			L	2004.669406	1848.03
			L	2004.666667	1833.37
			L	2004.665525	1837.54
			L	2004.662785	1855.78
			L	2004.654566	1855.03
			L	2004.651826	1855.77
			L	2004.649087	1836.72
			L	2004.646347	1846.93
			L	2004.643607	1843.79
			L	2004.635388	1819.54
			L	2004.632648	1825.91
			L	2004.629909	1787.66
			L	2004.627169	1792.26
			L	2004.624429	1759.58
			L	2004.61621	1762.46
			L	2004.61347	1770.68
			L	2004.610731	1778.43
			L	2004.607991	1782.3
			L	2004.605251	1782.35
			L	2004.597032	1805.95
			L	2004.594292	1856.99
			L	2004.591553	1850.78
			L	2004.588813	1887.14
			L	2004.586073	1874.93
			L	2004.579452	1878.54
			L	2004.576712	1871.54
			L	2004.573973	1861.37
			L	2004.571233	1844.28
			L	2004.568493	1852.42
			L	2004.560274	1874.46
			L	2004.557534	1872.43
			L	2004.554795	1933.02
			L	2004.552055	1886.69
			L	2004.549315	1889.06
			L	2004.541096	1926.19
			L	2004.538356	1920.14
			L	2004.535616	1913.73
			L	2004.532877	1940.31
			L	2004.530137	1936.17
			L	2004.521918	1946.49
			L	2004.519178	1951.79
			L	2004.516438	1961.22
			L	2004.513699	1994.7
			L	2004.50274	2014.09
			L	2004.5	2045.53
			L	2004.496119	2038.34
			L	2004.493379	2017.35
			L	2004.490639	2038.98
			L	2004.48242	2016.74
			L	2004.47968	2020.11
			L	2004.476941	1992.05
			L	2004.474201	1975.51
			L	2004.471461	1990.82
			L	2004.463242	1977.77
			L	2004.460502	1993.69
			L	2004.457763	1997.1
			L	2004.455023	1982.41
			L	2004.452283	1987.75
			L	2004.441324	1996.8
			L	2004.438584	2015.04
			L	2004.435845	2010.72
			L	2004.433105	1991.67
			L	2004.424886	1982.65
			L	2004.422146	1983.86
			L	2004.419406	1995.18
			L	2004.416667	1978.52
			L	2004.407306	1985.54
			L	2004.404566	1982.77
			L	2004.401826	1961.16
			L	2004.399087	1920.94
			L	2004.396347	1924.87
			L	2004.388128	1910.04
			L	2004.385388	1902.78
			L	2004.382648	1917.58
			L	2004.379909	1892.29
			L	2004.377169	1881.06
			L	2004.36895	1922.47
			L	2004.36621	1918.63
			L	2004.36347	1924.32
			L	2004.360731	1909.5
			L	2004.357991	1904.73
			L	2004.349772	1931.86
			L	2004.347032	1945.87
			L	2004.344292	1954.99
			L	2004.341553	1942.37
			L	2004.338813	1928.72
			L	2004.329452	1962.49
			L	2004.326712	1987.48
			L	2004.323973	2026.44
			L	2004.321233	2040.53
			L	2004.318493	2052.25
			L	2004.310274	2045.92
			L	2004.307534	1992.65
			L	2004.304795	1987.22
			L	2004.302055	2022.62
			L	2004.299315	1995.37
			L	2004.291096	2002.43
			L	2004.288356	2026.52
			L	2004.285616	2018.36
			L	2004.282877	2072.95
			L	2004.280137	2057.64
			L	2004.269178	2074.58
			L	2004.266438	2055.61
			L	2004.263699	2064.13
			L	2004.260959	2055.99
			L	2004.25274	2046.05
			L	2004.25	1996.45
			L	2004.248858	2001.09
			L	2004.246119	1985.67
			L	2004.243379	1975.43
			L	2004.23516	1963.52
			L	2004.23242	1923.22
			L	2004.22968	1908.04
			L	2004.226941	1923.23
			L	2004.224201	1929.02
			L	2004.215982	1964.97
			L	2004.213242	1971.26
			L	2004.210502	1956.52
			L	2004.207763	1952.78
			L	2004.205023	1977.78
			L	2004.196804	1961
			L	2004.194064	1953.59
			L	2004.191324	1997.11
			L	2004.188584	2008.75
			L	2004.185845	2052.07
			L	2004.177626	2037.33
			L	2004.174886	2034.73
			L	2004.172146	2037.11
			L	2004.169406	2056.38
			L	2004.166667	2036.92
			L	2004.154566	2036.67
			L	2004.151826	2018.91
			L	2004.149087	2010.59
			L	2004.146347	2000.75
			L	2004.143607	2044.41
			L	2004.135388	2052.13
			L	2004.132648	2091.71
			L	2004.129909	2084.23
			L	2004.127169	2068.42
			L	2004.11621	2080.17
			L	2004.11347	2084.02
			L	2004.110731	2072.9
			L	2004.107991	2061.1
			L	2004.105251	2069.29
			L	2004.097032	2025.96
			L	2004.094292	2024.48
			L	2004.091553	2042.83
			L	2004.088813	2061.28
			L	2004.086073	2072.13
			L	2004.079452	2068.36
			L	2004.076712	2085.54
			L	2004.073973	2125.02
			L	2004.071233	2148.05
			L	2004.068493	2120.56
			L	2004.060274	2124.76
			L	2004.057534	2146.32
			L	2004.054795	2139.33
			L	2004.052055	2149.03
			L	2004.041096	2126.12
			L	2004.038356	2101.86
			L	2004.035616	2104.29
			L	2004.032877	2113.11
			L	2004.030137	2093.54
			L	2004.021918	2083.64
			L	2004.019178	2089.6
			L	2004.016438	2056.75
			L	2004.013699	2044.55
			L	2004.010959	2020.78
			L	2004.00274	2011.08
			L	2003.998858	2010.64
			L	2003.996119	2003.98
			L	2003.993379	1976.93
			L	2003.98516	1970.37
			L	2003.97968	1969.71
			L	2003.976941	1954.03
			L	2003.974201	1946.19
			L	2003.965982	1963.28
			L	2003.963242	1924.62
			L	2003.960502	1922.21
			L	2003.957763	1918.06
			L	2003.955023	1978.77
			L	2003.946804	1947.26
			L	2003.944064	1904.48
			L	2003.941324	1912.24
			L	2003.938584	1955.5
			L	2003.935845	1937.48
			L	2003.927626	1949.26
			L	2003.924886	1966.92
			L	2003.922146	1989.14
			L	2003.919406	1986.8
			L	2003.916667	1972.97
			L	2003.907306	1950.21
			L	2003.901826	1954.28
			L	2003.899087	1948.36
			L	2003.896347	1907.29
			L	2003.888128	1891.84
			L	2003.885388	1886.63
			L	2003.882648	1886.18
			L	2003.879909	1919.45
			L	2003.877169	1919.01
			L	2003.86895	1966.87
			L	2003.86621	1964.43
			L	2003.86347	1935.97
			L	2003.860731	1938.85
			L	2003.857991	1972.1
			L	2003.849772	1986.56
			L	2003.847032	1971.27
			L	2003.844292	1957
			L	2003.841553	1961.45
			L	2003.838813	1941.31
			L	2003.832192	1938.22
			L	2003.829452	1955.59
			L	2003.826712	1925.61
			L	2003.823973	1893.28
			L	2003.821233	1876.03
			L	2003.813014	1863.32
			L	2003.810274	1879.12
			L	2003.807534	1923.33
			L	2003.804795	1929.31
			L	2003.802055	1913.79
			L	2003.793836	1947.2
			L	2003.791096	1931.99
			L	2003.788356	1966.38
			L	2003.785616	1929.52
			L	2003.782877	1924.06
			L	2003.774658	1915.52
			L	2003.771918	1916.95
			L	2003.769178	1913.64
			L	2003.766438	1882.92
			L	2003.763699	1884.64
			L	2003.755479	1864.54
			L	2003.75274	1828.94
			L	2003.75	1797.07
			L	2003.746119	1812.81
			L	2003.743379	1801.55
			L	2003.73516	1816.75
			L	2003.73242	1849.39
			L	2003.72968	1903.81
			L	2003.726941	1877.44
			L	2003.724201	1881.42
			L	2003.715982	1913.74
			L	2003.713242	1880.91
			L	2003.710502	1884.18
			L	2003.707763	1848.41
			L	2003.705023	1857.12
			L	2003.696804	1833.97
			L	2003.694064	1830.44
			L	2003.691324	1859.21
			L	2003.688584	1883
			L	2003.685845	1863.88
			L	2003.677626	1861.29
			L	2003.674886	1853.12
			L	2003.672146	1852.47
			L	2003.669406	1817.92
			L	2003.660046	1796.1
			L	2003.657306	1787.77
			L	2003.654566	1767.78
			L	2003.651826	1756.08
			L	2003.649087	1763.78
			L	2003.640868	1804.81
			L	2003.638128	1771.39
			L	2003.635388	1749.08
			L	2003.632648	1747
			L	2003.629909	1707.17
			L	2003.621689	1697.75
			L	2003.61895	1688.13
			L	2003.61621	1693.36
			L	2003.61347	1666.61
			L	2003.610731	1646.95
			L	2003.602511	1659.06
			L	2003.599772	1651.46
			L	2003.597032	1664.26
			L	2003.594292	1710.69
			L	2003.591553	1714.84
			L	2003.583333	1731.63
			L	2003.582192	1735.47
			L	2003.579452	1731.57
			L	2003.576712	1740.27
			L	2003.573973	1734.68
			L	2003.565753	1703.58
			L	2003.563014	1732.19
			L	2003.560274	1710.82
			L	2003.557534	1695.02
			L	2003.554795	1706.15
			L	2003.546575	1709.09
			L	2003.543836	1727.76
			L	2003.541096	1766.35
			L	2003.538356	1769.95
			L	2003.535616	1757.43
			L	2003.527397	1720.98
			L	2003.524658	1731.35
			L	2003.521918	1743.66
			L	2003.519178	1715.99
			L	2003.516438	1685.41
			L	2003.505479	1665.95
			L	2003.50274	1648.13
			L	2003.5	1617.3
			L	2003.496119	1634.86
			L	2003.4879	1636.03
			L	2003.48516	1611.31
			L	2003.48242	1608.5
			L	2003.47968	1605.69
			L	2003.476941	1642.33
			L	2003.468721	1657.31
			L	2003.465982	1677.05
			L	2003.463242	1663.03
			L	2003.460502	1673.1
			L	2003.457763	1633.8
			L	2003.449543	1656.61
			L	2003.446804	1653.05
			L	2003.444064	1625
			L	2003.441324	1611.17
			L	2003.438584	1623
			L	2003.430365	1670.03
			L	2003.427626	1620.79
			L	2003.424886	1604.84
			L	2003.422146	1589.72
			L	2003.419406	1612.1
			L	2003.412785	1583.23
			L	2003.410046	1565.38
			L	2003.407306	1560.11
			L	2003.404566	1504.87
			L	2003.393607	1506.64
			L	2003.390868	1493.39
			L	2003.388128	1488.27
			L	2003.385388	1498.05
			L	2003.382648	1530.38
			L	2003.374429	1544.84
			L	2003.371689	1541.43
			L	2003.36895	1545.88
			L	2003.36621	1533.14
			L	2003.36347	1518.52
			L	2003.355251	1500.65
			L	2003.352511	1492.49
			L	2003.349772	1513.48
			L	2003.347032	1503.42
			L	2003.344292	1508.31
			L	2003.336073	1470.09
			L	2003.333333	1463
			L	2003.329452	1467.84
			L	2003.326712	1468.03
			L	2003.323973	1437.86
			L	2003.315753	1451.13
			L	2003.313014	1453.23
			L	2003.310274	1453.95
			L	2003.307534	1417
			L	2003.304795	1425.96
			L	2003.293836	1395.62
			L	2003.291096	1411.7
			L	2003.288356	1381.67
			L	2003.285616	1361.35
			L	2003.277397	1379.48
			L	2003.274658	1359.43
			L	2003.271918	1385.28
			L	2003.269178	1388.53
			L	2003.266438	1425.23
			L	2003.258219	1400.97
			L	2003.255479	1404.99
			L	2003.25274	1374.71
			L	2003.25	1347.54
			L	2003.248858	1351.61
			L	2003.240639	1375.26
			L	2003.2379	1375.9
			L	2003.23516	1390.27
			L	2003.23242	1374.21
			L	2003.22968	1390.04
			L	2003.221461	1422.06
			L	2003.218721	1385.66
			L	2003.215982	1396.27
			L	2003.213242	1392
			L	2003.210502	1329.95
			L	2003.202283	1344.26
			L	2003.199543	1297.74
			L	2003.196804	1266.99
			L	2003.194064	1280.73
			L	2003.191324	1295.46
			L	2003.183105	1285.3
			L	2003.180365	1306.07
			L	2003.177626	1305.28
			L	2003.174886	1320.28
			L	2003.172146	1344.21
			L	2003.157306	1327.87
			L	2003.154566	1312.13
			L	2003.151826	1323.01
			L	2003.149087	1307.39
			L	2003.146347	1342.5
			L	2003.138128	1331.33
			L	2003.135388	1339.7
			L	2003.132648	1343.37
			L	2003.129909	1319.99
			L	2003.11895	1283.41
			L	2003.11621	1280.92
			L	2003.11347	1292.08
			L	2003.110731	1301.54
			L	2003.107991	1286.51
			L	2003.099772	1310.92
			L	2003.097032	1298.7
			L	2003.094292	1314.67
			L	2003.091553	1310.48
			L	2003.088813	1324.74
			L	2003.082192	1308.1
			L	2003.079452	1360.55
			L	2003.076712	1335.9
			L	2003.073973	1335.43
			L	2003.071233	1329.81
			L	2003.063014	1382.35
			L	2003.060274	1377.5
			L	2003.057534	1361.01
			L	2003.054795	1380.43
			L	2003.043836	1401.37
			L	2003.041096	1440.56
			L	2003.038356	1461.04
			L	2003.035616	1445.07
			L	2003.032877	1461.73
			L	2003.024658	1423.62
			L	2003.021918	1414.47
			L	2003.019178	1423.29
			L	2003.016438	1424.26
			L	2003.013699	1390.19
			L	2003.005479	1382.36
			L	2003.00274	1346.93
			L	2002.998858	1336.83
			L	2002.996119	1349.43
			L	2002.9879	1363.64
			L	2002.98516	1375.14
			L	2002.97968	1375.96
			L	2002.976941	1359.92
			L	2002.968721	1364.19
			L	2002.965982	1358.61
			L	2002.963242	1380.63
			L	2002.960502	1396.33
			L	2002.957763	1367.74
			L	2002.949543	1387.71
			L	2002.946804	1407.02
			L	2002.944064	1382.1
			L	2002.941324	1374.56
			L	2002.938584	1411.4
			L	2002.930365	1395.18
			L	2002.927626	1444.74
			L	2002.924886	1427.05
			L	2002.922146	1474.69
			L	2002.919406	1507.94
			L	2002.910046	1495.81
			L	2002.904566	1463.27
			L	2002.901826	1473.23
			L	2002.899087	1470.64
			L	2002.890868	1453.05
			L	2002.888128	1431.13
			L	2002.885388	1375.69
			L	2002.882648	1387.11
			L	2002.879909	1422.54
			L	2002.871689	1396.11
			L	2002.86895	1378.94
			L	2002.86621	1342.22
			L	2002.86347	1328.08
			L	2002.860731	1355.1
			L	2002.852511	1376.37
			L	2002.849772	1397.54
			L	2002.847032	1408.22
			L	2002.844292	1386.87
			L	2002.841553	1394.57
			L	2002.833333	1320.95
			L	2002.832192	1330.73
			L	2002.829452	1307.49
			L	2002.826712	1313.14
			L	2002.823973	1345.72
			L	2002.815753	1297.33
			L	2002.813014	1325.08
			L	2002.810274	1288.24
			L	2002.807534	1285.54
			L	2002.804795	1276.76
			L	2002.796575	1270.13
			L	2002.793836	1272.26
			L	2002.791096	1239.54
			L	2002.788356	1259.87
			L	2002.785616	1198.5
			L	2002.777397	1179.9
			L	2002.774658	1116.76
			L	2002.771918	1117.14
			L	2002.769178	1129.82
			L	2002.766438	1135.79
			L	2002.758219	1174.58
			L	2002.755479	1183.11
			L	2002.75274	1208.03
			L	2002.75	1180.26
			L	2002.746119	1187.48
			L	2002.7379	1213.77
			L	2002.73516	1231.85
			L	2002.73242	1195.6
			L	2002.72968	1170.95
			L	2002.726941	1209.13
			L	2002.718721	1229.47
			L	2002.715982	1233.94
			L	2002.713242	1244.52
			L	2002.710502	1292.91
			L	2002.707763	1286.85
			L	2002.699543	1272.94
			L	2002.696804	1305.72
			L	2002.694064	1328.35
			L	2002.691324	1306.13
			L	2002.688584	1286.75
			L	2002.680365	1280.27
			L	2002.677626	1274.76
			L	2002.674886	1268.65
			L	2002.672146	1302.67
			L	2002.662785	1326.05
			L	2002.660046	1304.21
			L	2002.657306	1339.42
			L	2002.654566	1395.04
			L	2002.651826	1387.2
			L	2002.643607	1411.75
			L	2002.640868	1410.75
			L	2002.638128	1389.56
			L	2002.635388	1384.47
			L	2002.632648	1362.29
			L	2002.624429	1333.26
			L	2002.621689	1339.6
			L	2002.61895	1273.94
			L	2002.61621	1300.73
			L	2002.61347	1293.88
			L	2002.605251	1301.83
			L	2002.602511	1278.34
			L	2002.599772	1290.23
			L	2002.597032	1224.8
			L	2002.594292	1243.38
			L	2002.586073	1279.1
			L	2002.583333	1322.47
			L	2002.582192	1331.82
			L	2002.579452	1322.99
			L	2002.576712	1286.81
			L	2002.568493	1250.72
			L	2002.565753	1277.16
			L	2002.563014	1203.88
			L	2002.560274	1287.59
			L	2002.557534	1309.84
			L	2002.549315	1336.39
			L	2002.546575	1390.41
			L	2002.543836	1408.1
			L	2002.541096	1371.91
			L	2002.538356	1365.79
			L	2002.530137	1391.3
			L	2002.527397	1339.65
			L	2002.524658	1396.67
			L	2002.521918	1405.37
			L	2002.519178	1439.85
			L	2002.510959	1401.03
			L	2002.505479	1348.61
			L	2002.50274	1395.37
			L	2002.5	1457.04
			L	2002.490639	1454.98
			L	2002.4879	1446.37
			L	2002.48516	1379.87
			L	2002.48242	1472.19
			L	2002.47968	1429.56
			L	2002.471461	1456.61
			L	2002.468721	1494.8
			L	2002.465982	1531.05
			L	2002.463242	1544.19
			L	2002.460502	1519.65
			L	2002.452283	1471.97
			L	2002.449543	1512.23
			L	2002.446804	1491.36
			L	2002.444064	1542.16
			L	2002.441324	1536.98
			L	2002.433105	1500.15
			L	2002.430365	1583.65
			L	2002.427626	1580.06
			L	2002.424886	1559.25
			L	2002.422146	1613.5
			L	2002.415525	1641.1
			L	2002.412785	1613.42
			L	2002.410046	1639.27
			L	2002.407306	1670.35
			L	2002.396347	1680.66
			L	2002.393607	1678.42
			L	2002.390868	1654.34
			L	2002.388128	1708.57
			L	2002.385388	1726.78
			L	2002.377169	1745.17
			L	2002.374429	1723.69
			L	2002.371689	1705.45
			L	2002.36895	1694.15
			L	2002.36621	1611.26
			L	2002.357991	1657.18
			L	2002.355251	1684.44
			L	2002.352511	1625.73
			L	2002.349772	1589.58
			L	2002.347032	1611.05
			L	2002.338813	1643.17
			L	2002.336073	1673.72
			L	2002.333333	1683.76
			L	2002.329452	1655.02
			L	2002.326712	1668.52
			L	2002.318493	1722.83
			L	2002.315753	1705.8
			L	2002.313014	1739.13
			L	2002.310274	1757.92
			L	2002.307534	1779.18
			L	2002.299315	1816.35
			L	2002.296575	1806.28
			L	2002.293836	1829.58
			L	2002.291096	1779.29
			L	2002.288356	1761.95
			L	2002.280137	1738.96
			L	2002.277397	1757.01
			L	2002.274658	1751.57
			L	2002.271918	1789.14
			L	2002.269178	1741.1
			L	2002.260959	1796.92
			L	2002.258219	1776.53
			L	2002.255479	1809.59
			L	2002.25274	1836.03
			L	2002.25	1834.59
			L	2002.240639	1836.25
			L	2002.2379	1817.22
			L	2002.23516	1808.87
			L	2002.23242	1855.65
			L	2002.224201	1865.18
			L	2002.221461	1835.21
			L	2002.218721	1860.28
			L	2002.215982	1881.13
			L	2002.213242	1882.73
			L	2002.205023	1854.34
			L	2002.202283	1863.1
			L	2002.199543	1879.97
			L	2002.196804	1888.68
			L	2002.194064	1919.73
			L	2002.185845	1908.09
			L	2002.183105	1903.24
			L	2002.180365	1859.28
			L	2002.177626	1854.71
			L	2002.174886	1799.68
			L	2002.166667	1745.49
			L	2002.157306	1759.33
			L	2002.154566	1783.29
			L	2002.151826	1777.54
			L	2002.149087	1731.43
			L	2002.140868	1718.7
			L	2002.138128	1763.82
			L	2002.135388	1762.43
			L	2002.132648	1790.94
			L	2002.121689	1844.89
			L	2002.11895	1863.47
			L	2002.11621	1844.79
			L	2002.11347	1829.53
			L	2002.110731	1816.94
			L	2002.102511	1794.05
			L	2002.099772	1809.43
			L	2002.097032	1853.13
			L	2002.094292	1844.62
			L	2002.091553	1907.58
			L	2002.083333	1928.83
			L	2002.082192	1924.56
			L	2002.079452	1897.73
			L	2002.076712	1947.09
			L	2002.073973	1951.12
			L	2002.065753	1929.15
			L	2002.063014	1937.67
			L	2002.060274	1889.53
			L	2002.057534	1946.87
			L	2002.046575	1943.56
			L	2002.043836	1968.7
			L	2002.041096	1976.42
			L	2002.038356	1994.88
			L	2002.035616	2012.59
			L	2002.027397	2049.5
			L	2002.024658	2045.13
			L	2002.021918	2074.32
			L	2002.019178	2039.42
			L	2002.016438	2075.24
			L	2002.008219	2061.83
			L	2002.005479	1987.06
			L	2002.00274	1965.18
			L	2001.998858	1984.31
			L	2001.990639	1985.71
			L	2001.9879	1967.32
			L	2001.98516	1948.77
			L	2001.97968	1946.84
			L	2001.971461	1941.55
			L	2001.968721	1969
			L	2001.965982	1981.65
			L	2001.963242	1998.36
			L	2001.960502	1950.94
			L	2001.952283	1945.18
			L	2001.949543	1979.84
			L	2001.946804	2007.48
			L	2001.944064	2009.93
			L	2001.941324	2007.67
			L	2001.933105	2043.68
			L	2001.930365	2045.22
			L	2001.927626	1980.3
			L	2001.924886	1917.66
			L	2001.922146	1915.13
			L	2001.912785	1929.29
			L	2001.910046	1898.63
			L	2001.907306	1921.6
			L	2001.904566	1931.59
			L	2001.901826	1914.53
			L	2001.893607	1878.91
			L	2001.888128	1873.6
			L	2001.885388	1926.47
			L	2001.882648	1912.48
			L	2001.874429	1903.48
			L	2001.871689	1891.36
			L	2001.86895	1910.45
			L	2001.86621	1871.47
			L	2001.86347	1826.25
			L	2001.855251	1824.73
			L	2001.852511	1855.68
			L	2001.849772	1821.04
			L	2001.847032	1786.92
			L	2001.844292	1768.29
			L	2001.836073	1741.37
			L	2001.833333	1705.52
			L	2001.832192	1690.12
			L	2001.829452	1682.3
			L	2001.826712	1763.42
			L	2001.818493	1763.78
			L	2001.815753	1708.49
			L	2001.813014	1707.52
			L	2001.810274	1720.54
			L	2001.807534	1666.08
			L	2001.799315	1644.49
			L	2001.796575	1648.69
			L	2001.793836	1752.94
			L	2001.791096	1704.75
			L	2001.788356	1684.04
			L	2001.780137	1690.21
			L	2001.777397	1649.55
			L	2001.774658	1563.96
			L	2001.771918	1604.11
			L	2001.769178	1582.93
			L	2001.760959	1586.4
			L	2001.758219	1602.6
			L	2001.755479	1479.27
			L	2001.75274	1479.01
			L	2001.75	1491.45
			L	2001.740639	1472.56
			L	2001.7379	1456.8
			L	2001.73516	1514.76
			L	2001.73242	1505.52
			L	2001.72968	1459.47
			L	2001.721461	1395.79
			L	2001.718721	1494.94
			L	2001.715982	1560.52
			L	2001.713242	1591.77
			L	2001.710502	1613.83
			L	2001.691324	1673.78
			L	2001.683105	1694.02
			L	2001.680365	1736.2
			L	2001.677626	1771.75
			L	2001.674886	1802.29
			L	2001.665525	1784.26
			L	2001.662785	1817.19
			L	2001.660046	1875.44
			L	2001.657306	1912.67
			L	2001.654566	1912.7
			L	2001.646347	1863.32
			L	2001.643607	1857.52
			L	2001.640868	1851.75
			L	2001.638128	1883.44
			L	2001.635388	1866.29
			L	2001.627169	1895.42
			L	2001.624429	1899.9
			L	2001.621689	1964.2
			L	2001.61895	1990.83
			L	2001.61621	1963.04
			L	2001.607991	1957.34
			L	2001.605251	1962.48
			L	2001.602511	2015.75
			L	2001.599772	2026.84
			L	2001.597032	2047.86
			L	2001.588813	2079.15
			L	2001.586073	2092.52
			L	2001.583333	2051.56
			L	2001.582192	2023.97
			L	2001.579452	2034.11
			L	2001.571233	2020.58
			L	2001.568493	1980.03
			L	2001.565753	1962.68
			L	2001.563014	1980.37
			L	2001.560274	2043.84
			L	2001.552055	2015.23
			L	2001.549315	2042.32
			L	2001.546575	2035.09
			L	2001.543836	2017.47
			L	2001.541096	2078.53
			L	2001.532877	2068.22
			L	2001.530137	2033.22
			L	2001.527397	1954.72
			L	2001.524658	2043.61
			L	2001.521918	2010.97
			L	2001.513699	2060.73
			L	2001.510959	2122.89
			L	2001.505479	2137.1
			L	2001.50274	2156.76
			L	2001.493379	2129.89
			L	2001.490639	2096.88
			L	2001.4879	2068.29
			L	2001.48516	2022.86
			L	2001.48242	2054.34
			L	2001.474201	2062
			L	2001.471461	2026.3
			L	2001.468721	1974.11
			L	2001.465982	2046.04
			L	2001.463242	2035.34
			L	2001.455023	2017.8
			L	2001.452283	2100.74
			L	2001.449543	2175.62
			L	2001.446804	2133.56
			L	2001.444064	2205.41
			L	2001.435845	2263.75
			L	2001.433105	2208.03
			L	2001.430365	2239.86
			L	2001.427626	2167.31
			L	2001.424886	2164.7
			L	2001.416667	2131.12
			L	2001.415525	2092.53
			L	2001.412785	2136.95
			L	2001.410046	2239.92
			L	2001.399087	2281.18
			L	2001.396347	2250.04
			L	2001.393607	2299.75
			L	2001.390868	2319.18
			L	2001.388128	2201.45
			L	2001.379909	2182.56
			L	2001.377169	2170.01
			L	2001.374429	2067.6
			L	2001.371689	2086.98
			L	2001.36895	2105.36
			L	2001.360731	2130.74
			L	2001.357991	2195.52
			L	2001.355251	2162.3
			L	2001.352511	2209.01
			L	2001.349772	2194.04
			L	2001.341553	2102.61
			L	2001.338813	2183.07
			L	2001.336073	2205.25
			L	2001.333333	2116.24
			L	2001.329452	2113.11
			L	2001.321233	2070.24
			L	2001.318493	2086.04
			L	2001.315753	2013.42
			L	2001.313014	2055.32
			L	2001.310274	2118.36
			L	2001.302055	2171.9
			L	2001.299315	2100.88
			L	2001.296575	2005.06
			L	2001.293836	1872.35
			L	2001.291096	1934.7
			L	2001.280137	1881.19
			L	2001.277397	1929.93
			L	2001.274658	1771.68
			L	2001.271918	1739.66
			L	2001.263699	1756.11
			L	2001.260959	1709.91
			L	2001.258219	1668.37
			L	2001.255479	1758.18
			L	2001.25274	1835.22
			L	2001.246119	1830.42
			L	2001.243379	1838.44
			L	2001.240639	1925.3
			L	2001.2379	1922.7
			L	2001.23516	1957.71
			L	2001.226941	1938.91
			L	2001.224201	1845.34
			L	2001.221461	1862.74
			L	2001.218721	1964.45
			L	2001.215982	1901.45
			L	2001.207763	1914.58
			L	2001.205023	2023.79
			L	2001.202283	1948.56
			L	2001.199543	1948.7
			L	2001.196804	2001.68
			L	2001.188584	2124.11
			L	2001.185845	2211.3
			L	2001.183105	2241.23
			L	2001.180365	2204.3
			L	2001.177626	2142.75
			L	2001.169406	2111.23
			L	2001.166667	2126.3
			L	2001.157306	2223.88
			L	2001.154566	2286.64
			L	2001.151826	2287.88
			L	2001.143607	2221.27
			L	2001.140868	2272.13
			L	2001.138128	2281.79
			L	2001.135388	2439.57
			L	2001.124429	2444.6
			L	2001.121689	2536.63
			L	2001.11895	2437.68
			L	2001.11621	2510.84
			L	2001.11347	2458.65
			L	2001.105251	2542.24
			L	2001.102511	2625.78
			L	2001.099772	2615.94
			L	2001.097032	2641.91
			L	2001.094292	2639.65
			L	2001.086073	2782.93
			L	2001.083333	2771.57
			L	2001.082192	2848.11
			L	2001.079452	2845.01
			L	2001.076712	2757.29
			L	2001.068493	2705.39
			L	2001.065753	2836.35
			L	2001.063014	2850.74
			L	2001.060274	2759.26
			L	2001.057534	2759.1
			L	2001.049315	2838.36
			L	2001.046575	2696.74
			L	2001.043836	2710.53
			L	2001.041096	2631.49
			L	2001.030137	2639.56
			L	2001.027397	2495.59
			L	2001.024658	2392.71
			L	2001.021918	2424.69
			L	2001.019178	2388.72
			L	2001.010959	2573.11
			L	2001.008219	2593.96
			L	2001.005479	2254.56
			L	2001.00274	2474.16
			L	2000.993379	2552.68
			L	2000.990639	2517.9
			L	2000.9879	2471.33
			L	2000.98516	2518.29
			L	2000.974201	2397.67
			L	2000.971461	2310.21
			L	2000.968721	2410.96
			L	2000.965982	2617.06
			L	2000.963242	2698.72
			L	2000.955023	2688.66
			L	2000.952283	2820.48
			L	2000.949543	2996.57
			L	2000.946804	2994.06
			L	2000.944064	2936.6
			L	2000.935845	2857.93
			L	2000.933105	2748.29
			L	2000.930365	2878.87
			L	2000.927626	2702.72
			L	2000.924886	2662.56
			L	2000.916667	2644.09
			L	2000.912785	2599.04
			L	2000.910046	2748.18
			L	2000.907306	2873.73
			L	2000.904566	2979.93
			L	2000.896347	2823.48
			L	2000.890868	2828.14
			L	2000.888128	2892.03
			L	2000.885388	2943.11
			L	2000.877169	3044.45
			L	2000.874429	3121.8
			L	2000.871689	3137.61
			L	2000.86895	3069.81
			L	2000.86621	2956.09
			L	2000.857991	3122.11
			L	2000.855251	3174.9
			L	2000.852511	3426.29
			L	2000.849772	3399.28
			L	2000.847032	3469.35
			L	2000.838813	3447.32
			L	2000.836073	3387.28
			L	2000.833333	3316.51
			L	2000.832192	3223.44
			L	2000.829452	3243.88
			L	2000.821233	3320.69
			L	2000.818493	3245.4
			L	2000.815753	3347.24
			L	2000.813014	3495.45
			L	2000.810274	3483.38
			L	2000.802055	3402.96
			L	2000.799315	3330.25
			L	2000.796575	3106.95
			L	2000.793836	3335.4
			L	2000.791096	3315.48
			L	2000.782877	3054.55
			L	2000.780137	3241.26
			L	2000.777397	3152.33
			L	2000.774658	3326.89
			L	2000.771918	3352.15
			L	2000.763699	3477.7
			L	2000.760959	3499.96
			L	2000.758219	3440.6
			L	2000.755479	3624.93
			L	2000.75274	3714.48
			L	2000.743379	3749.27
			L	2000.740639	3638.94
			L	2000.7379	3740.62
			L	2000.73516	3762.65
			L	2000.73242	3852.53
			L	2000.724201	3616.16
			L	2000.721461	3864.6
			L	2000.718721	3863.08
			L	2000.715982	3766.04
			L	2000.713242	3838.63
			L	2000.705023	3905.09
			L	2000.702283	3963.1
			L	2000.699543	3794.92
			L	2000.696804	3925.42
			L	2000.694064	3961.16
			L	2000.685845	4081.96
			L	2000.683105	4047.02
			L	2000.680365	4136.84
			L	2000.677626	4205.94
			L	2000.666667	4252.15
			L	2000.665525	4127.19
			L	2000.662785	4076.5
			L	2000.660046	4074.21
			L	2000.657306	4049.18
			L	2000.649087	4049.84
			L	2000.646347	4020.99
			L	2000.643607	3935.51
			L	2000.640868	3970.16
			L	2000.638128	3966.23
			L	2000.629909	3958.7
			L	2000.627169	3858.88
			L	2000.624429	3878.58
			L	2000.621689	3846.83
			L	2000.61895	3804.69
			L	2000.610731	3741.62
			L	2000.607991	3843.58
			L	2000.605251	3915.26
			L	2000.602511	3850.87
			L	2000.599772	3819.38
			L	2000.591553	3812.31
			L	2000.588813	3554.68
			L	2000.586073	3684.12
			L	2000.583333	3760.95
			L	2000.582192	3692.43
			L	2000.573973	3855.1
			L	2000.571233	3938.14
			L	2000.568493	3998.03
			L	2000.565753	4015.41
			L	2000.563014	4109.65
			L	2000.554795	4154
			L	2000.552055	4106.63
			L	2000.549315	4154.37
			L	2000.546575	4233.49
			L	2000.543836	4243.55
			L	2000.535616	4221.8
			L	2000.532877	4128.81
			L	2000.530137	4024.59
			L	2000.527397	3970.42
			L	2000.524658	3993.62
			L	2000.516438	3978.38
			L	2000.513699	3872.91
			L	2000.510959	3949.76
			L	2000.505479	3950.59
			L	2000.496119	3889.51
			L	2000.493379	3900.29
			L	2000.490639	3877.77
			L	2000.4879	3904.4
			L	2000.48516	3884.65
			L	2000.476941	3950.05
			L	2000.474201	4073.73
			L	2000.471461	3965.37
			L	2000.468721	4003.09
			L	2000.465982	3818.65
			L	2000.457763	3877.07
			L	2000.455023	3802.19
			L	2000.452283	3875.04
			L	2000.449543	3743.91
			L	2000.446804	3892.05
			L	2000.438584	3892.75
			L	2000.435845	3886.04
			L	2000.433105	3766.55
			L	2000.430365	3825.98
			L	2000.427626	3773.24
			L	2000.419406	3728.95
			L	2000.416667	3471.95
			L	2000.415525	3428.25
			L	2000.412785	3286.54
			L	2000.401826	3215.28
			L	2000.399087	3308.51
			L	2000.396347	3155.14
			L	2000.393607	3346.66
			L	2000.390868	3390.95
			L	2000.382648	3480.63
			L	2000.379909	3660.24
			L	2000.377169	3649.54
			L	2000.374429	3674.89
			L	2000.371689	3533.21
			L	2000.36347	3546.24
			L	2000.360731	3450.06
			L	2000.357991	3525.02
			L	2000.355251	3704.85
			L	2000.352511	3758.46
			L	2000.344292	3694.28
			L	2000.341553	3723.27
			L	2000.338813	3755.3
			L	2000.336073	3927.92
			L	2000.333333	3930.18
			L	2000.323973	3830.61
			L	2000.321233	3519.13
			L	2000.318493	3728.99
			L	2000.315753	3592.73
			L	2000.313014	3466.69
			L	2000.302055	3735.08
			L	2000.299315	3832.65
			L	2000.296575	3596.15
			L	2000.293836	3232.94
			L	2000.285616	3597.44
			L	2000.282877	3839.56
			L	2000.280137	4050.32
			L	2000.277397	4094.61
			L	2000.274658	4475.2
			L	2000.266438	4354.13
			L	2000.263699	4266.8
			L	2000.260959	4025.9
			L	2000.258219	4283.45
			L	2000.255479	4494.89
			L	2000.248858	4550.21
			L	2000.246119	4540.44
			L	2000.243379	4860.02
			L	2000.240639	4939.05
			L	2000.2379	4994.42
			L	2000.22968	4986.54
			L	2000.226941	4874.17
			L	2000.224201	4750.54
			L	2000.221461	4589.52
			L	2000.218721	4812.14
			L	2000.210502	4702.03
			L	2000.207763	4658.44
			L	2000.205023	4758.44
			L	2000.202283	4997.31
			L	2000.199543	4879.03
			L	2000.191324	5060.34
			L	2000.188584	4913.08
			L	2000.185845	4920.86
			L	2000.183105	4991.97
			L	2000.180365	4935.65
			L	2000.172146	4846.01
			L	2000.169406	4816.81
			L	2000.166667	4732.82
			L	2000.160046	4646.64
			L	2000.157306	4575.07
			L	2000.149087	4618.83
			L	2000.146347	4583.89
			L	2000.143607	4406.88
			L	2000.140868	4432.83
			L	2000.129909	4563.72
			L	2000.127169	4483.01
			L	2000.124429	4427.19
			L	2000.121689	4415.52
			L	2000.11895	4434.38
			L	2000.110731	4489.33
			L	2000.107991	4390.16
			L	2000.105251	4460.18
			L	2000.102511	4370.01
			L	2000.099772	4274.03
			L	2000.091553	4242.15
			L	2000.088813	4134.65
			L	2000.086073	4059.03
			L	2000.083333	3961.07
			L	2000.082192	3873.84
			L	2000.073973	4010.14
			L	2000.071233	4120.5
			L	2000.068493	4174.72
			L	2000.065753	4124.75
			L	2000.063014	4290.38
			L	2000.054795	4236.65
			L	2000.052055	4205.06
			L	2000.049315	4116.27
			L	2000.046575	4059.65
			L	2000.035616	4045.72
			L	2000.032877	3915.14
			L	2000.030137	3950.95
			L	2000.027397	4031.38
			L	2000.024658	4002.23
			L	2000.016438	3711.09
			L	2000.013699	3834.44
			L	2000.010959	3854.35
			L	2000.008219	4020
			L	2000.005479	4186.19
			L	1999.998858	4056.99
			L	1999.996119	4079.03
			L	1999.993379	3990.54
			L	1999.990639	3977.88
			L	1999.9879	4001.9
			L	1999.976941	3966.46
			L	1999.974201	3935.49
			L	1999.971461	3798.25
			L	1999.968721	3782.06
			L	1999.960502	3792.23
			L	1999.957763	3669.23
			L	1999.955023	3546.73
			L	1999.952283	3669.21
			L	1999.949543	3624.67
			L	1999.941324	3633.55
			L	1999.938584	3643.57
			L	1999.935845	3588.82
			L	1999.933105	3573.3
			L	1999.930365	3531.24
			L	1999.922146	3507.3
			L	1999.919406	3371.85
			L	1999.916667	3341.1
			L	1999.912785	3424.61
			L	1999.910046	3458.13
			L	1999.901826	3455.14
			L	1999.896347	3351.66
			L	1999.893607	3408.68
			L	1999.890868	3399.06
			L	1999.882648	3351.75
			L	1999.879909	3301.49
			L	1999.877169	3308.88
			L	1999.874429	3242.92
			L	1999.871689	3230.26
			L	1999.86347	3220.98
			L	1999.860731	3186.41
			L	1999.857991	3126.09
			L	1999.855251	3172.99
			L	1999.852511	3072.04
			L	1999.844292	3100.13
			L	1999.841553	3067.08
			L	1999.838813	3021.53
			L	1999.836073	2984.43
			L	1999.833333	2970.93
			L	1999.826712	2919.37
			L	1999.823973	2832.81
			L	1999.821233	2811.94
			L	1999.818493	2851.99
			L	1999.815753	2813.29
			L	1999.807534	2827.23
			L	1999.804795	2727.74
			L	1999.802055	2745.62
			L	1999.799315	2725.57
			L	1999.796575	2726.3
			L	1999.788356	2748.1
			L	1999.785616	2816.02
			L	1999.782877	2834.94
			L	1999.780137	2921.41
			L	1999.777397	2890.73
			L	1999.769178	2861.72
			L	1999.766438	2874.75
			L	1999.763699	2822.6
			L	1999.760959	2795.97
			L	1999.758219	2751.54
			L	1999.75	2729.04
			L	1999.746119	2744.35
			L	1999.743379	2756.25
			L	1999.740639	2752.24
			L	1999.7379	2781.42
			L	1999.72968	2728.23
			L	1999.726941	2879.9
			L	1999.724201	2832.1
			L	1999.721461	2863.56
			L	1999.718721	2877.53
			L	1999.710502	2825.86
			L	1999.707763	2820.84
			L	1999.705023	2887.23
			L	1999.702283	2843.53
			L	1999.699543	2879.78
			L	1999.691324	2880.73
			L	1999.688584	2826.6
			L	1999.685845	2824.02
			L	1999.683105	2840.12
			L	1999.672146	2793.66
			L	1999.669406	2716.15
			L	1999.666667	2752.33
			L	1999.665525	2717.26
			L	1999.662785	2763.83
			L	1999.654566	2792.47
			L	1999.651826	2808.42
			L	1999.649087	2772.82
			L	1999.646347	2708.8
			L	1999.643607	2670.7
			L	1999.635388	2635.05
			L	1999.632648	2637.74
			L	1999.629909	2671.13
			L	1999.627169	2674.47
			L	1999.624429	2644.67
			L	1999.61621	2590.17
			L	1999.61347	2567.21
			L	1999.610731	2532.54
			L	1999.607991	2513.14
			L	1999.605251	2562.05
			L	1999.597032	2552.03
			L	1999.594292	2539.24
			L	1999.591553	2590.2
			L	1999.588813	2647.81
			L	1999.586073	2638.31
			L	1999.579452	2657.83
			L	1999.576712	2663.96
			L	1999.573973	2684.04
			L	1999.571233	2658.26
			L	1999.568493	2656.3
			L	1999.560274	2700.86
			L	1999.557534	2749.05
			L	1999.554795	2742.83
			L	1999.552055	2806.37
			L	1999.549315	2874.61
			L	1999.541096	2851.52
			L	1999.538356	2828.61
			L	1999.535616	2796.62
			L	1999.532877	2768.82
			L	1999.530137	2805.08
			L	1999.521918	2785.34
			L	1999.519178	2744.48
			L	1999.516438	2742.33
			L	1999.513699	2760.01
			L	1999.50274	2712.9
			L	1999.5	2692.96
			L	1999.496119	2639.79
			L	1999.493379	2602.98
			L	1999.490639	2568.47
			L	1999.48242	2573
			L	1999.47968	2596.71
			L	1999.476941	2569.4
			L	1999.474201	2618.34
			L	1999.471461	2578.2
			L	1999.463242	2524.81
			L	1999.460502	2500.35
			L	1999.457763	2465.01
			L	1999.455023	2403.47
			L	1999.452283	2453.23
			L	1999.444064	2495.59
			L	1999.441324	2504.24
			L	1999.438584	2495.12
			L	1999.435845	2526.11
			L	1999.433105	2490.83
			L	1999.424886	2419.46
			L	1999.422146	2440.75
			L	1999.419406	2411.32
			L	1999.416667	2467.51
			L	1999.407306	2427.83
			L	1999.404566	2421.1
			L	1999.401826	2407.86
			L	1999.399087	2454.63
			L	1999.396347	2529.3
			L	1999.388128	2551.42
			L	1999.385388	2585.46
			L	1999.382648	2568.44
			L	1999.379909	2569.59
			L	1999.377169	2517.26
			L	1999.36895	2549.33
			L	1999.36621	2621.74
			L	1999.36347	2584.57
			L	1999.360731	2553.02
			L	1999.357991	2516.84
			L	1999.349772	2499.53
			L	1999.347032	2532.41
			L	1999.344292	2498.15
			L	1999.341553	2535.81
			L	1999.338813	2546.33
			L	1999.329452	2565.87
			L	1999.326712	2544.93
			L	1999.323973	2601.13
			L	1999.321233	2671.57
			L	1999.318493	2617.09
			L	1999.310274	2563.87
			L	1999.307534	2551.13
			L	1999.304795	2428.89
			L	1999.302055	2355.26
			L	1999.299315	2501.71
			L	1999.291096	2528.51
			L	1999.288356	2535.19
			L	1999.285616	2621.52
			L	1999.282877	2626.85
			L	1999.280137	2530.99
			L	1999.271918	2574.98
			L	1999.269178	2553.45
			L	1999.266438	2594.78
			L	1999.263699	2555.48
			L	1999.260959	2523.98
			L	1999.25	2493.07
			L	1999.248858	2508.34
			L	1999.246119	2492.17
			L	1999.243379	2442.59
			L	1999.23516	2425.05
			L	1999.23242	2399.72
			L	1999.22968	2326.63
			L	1999.226941	2388.04
			L	1999.224201	2428.39
			L	1999.215982	2480.39
			L	1999.213242	2425.36
			L	1999.210502	2440.22
			L	1999.207763	2437.98
			L	1999.205023	2392.54
			L	1999.196804	2411.48
			L	1999.194064	2419.12
			L	1999.191324	2407.1
			L	1999.188584	2396.52
			L	1999.185845	2357.32
			L	1999.177626	2329.58
			L	1999.174886	2286.29
			L	1999.172146	2274.04
			L	1999.169406	2303.62
			L	1999.166667	2286.83
			L	1999.151826	2320.49
			L	1999.149087	2329.39
			L	1999.146347	2389.75
			L	1999.143607	2360.68
			L	1999.140868	2293.33
			L	1999.132648	2276.61
			L	1999.129909	2269.03
			L	1999.127169	2277.58
			L	1999.124429	2361.22
			L	1999.11347	2375.99
			L	1999.110731	2339.02
			L	1999.107991	2304.25
			L	1999.105251	2403.95
			L	1999.102511	2405.31
			L	1999.094292	2419.93
			L	1999.091553	2496.49
			L	1999.088813	2453.23
			L	1999.086073	2512.12
			L	1999.083333	2522.38
			L	1999.076712	2486.28
			L	1999.073973	2442.52
			L	1999.071233	2455.25
			L	1999.068493	2388.97
			L	1999.065753	2363.48
			L	1999.057534	2309.34
			L	1999.054795	2403.52
			L	1999.052055	2451.43
			L	1999.049315	2390.93
			L	1999.038356	2292.3
			L	1999.035616	2337.31
			L	1999.032877	2222.28
			L	1999.030137	2395.9
			L	1999.027397	2373.97
			L	1999.019178	2363.8
			L	1999.016438	2293.27
			L	1999.013699	2286.13
			L	1999.010959	2207.75
			L	1999.008219	2207.54
			L	1998.998858	2169.38
			L	1998.996119	2181.34
			L	1998.993379	2184.43
			L	1998.990639	2178.24
			L	1998.97968	2171.3
			L	1998.976941	2149.28
			L	1998.974201	2144.22
			L	1998.971461	2107.24
			L	1998.963242	2057.77
			L	1998.960502	2014.78
			L	1998.957763	2023.32
			L	1998.955023	1984.91
			L	1998.952283	2013.43
			L	1998.944064	2012.87
			L	1998.941324	2051.59
			L	1998.938584	2045.16
			L	1998.935845	2042.6
			L	1998.933105	2009.98
			L	1998.924886	1984.39
			L	1998.922146	1995.29
			L	1998.919406	1995.96
			L	1998.916667	1928.51
			L	1998.912785	2023.66
			L	1998.904566	1994.91
			L	1998.899087	1973.64
			L	1998.896347	1972.91
			L	1998.893607	1937.82
			L	1998.885388	1935.65
			L	1998.882648	1904
			L	1998.879909	1878.26
			L	1998.877169	1857.6
			L	1998.874429	1868.44
			L	1998.86621	1843.67
			L	1998.86347	1853.24
			L	1998.860731	1888.22
			L	1998.857991	1859.23
			L	1998.855251	1857.65
			L	1998.847032	1834.8
			L	1998.844292	1812.69
			L	1998.841553	1807.88
			L	1998.838813	1798.28
			L	1998.836073	1783.71
			L	1998.829452	1768.7
			L	1998.826712	1734.96
			L	1998.823973	1710.28
			L	1998.821233	1740.84
			L	1998.818493	1706.18
			L	1998.810274	1699.19
			L	1998.807534	1672.03
			L	1998.804795	1657.75
			L	1998.802055	1661.83
			L	1998.799315	1618.14
			L	1998.791096	1625.24
			L	1998.788356	1541.8
			L	1998.785616	1502.18
			L	1998.782877	1541.13
			L	1998.780137	1528.49
			L	1998.771918	1447.34
			L	1998.769178	1420.94
			L	1998.766438	1504.58
			L	1998.763699	1570.5
			L	1998.760959	1591.17
			L	1998.75274	1609.45
			L	1998.75	1663.3
			L	1998.746119	1716.71
			L	1998.743379	1745.4
			L	1998.740639	1757.9
			L	1998.73242	1705.49
			L	1998.72968	1753.19
			L	1998.726941	1711.67
			L	1998.724201	1693.53
			L	1998.721461	1630.11
			L	1998.713242	1658.08
			L	1998.710502	1646.19
			L	1998.707763	1684.03
			L	1998.705023	1658.65
			L	1998.702283	1660.31
			L	1998.694064	1599.8
			L	1998.691324	1624.54
			L	1998.688584	1658.5
			L	1998.685845	1566.52
			L	1998.674886	1586.33
			L	1998.672146	1572.44
			L	1998.669406	1590.02
			L	1998.666667	1509.01
			L	1998.665525	1646.75
			L	1998.657306	1690.07
			L	1998.654566	1742.13
			L	1998.651826	1776.91
			L	1998.649087	1807.12
			L	1998.646347	1803.77
			L	1998.638128	1816.48
			L	1998.635388	1835.12
			L	1998.632648	1872.38
			L	1998.629909	1826.88
			L	1998.627169	1784.91
			L	1998.61895	1815.74
			L	1998.61621	1820.53
			L	1998.61347	1809.67
			L	1998.610731	1801.67
			L	1998.607991	1847.21
			L	1998.599772	1842.48
			L	1998.597032	1777.88
			L	1998.594292	1790.15
			L	1998.591553	1863.77
			L	1998.588813	1869.72
			L	1998.582192	1920.09
			L	1998.579452	1897.03
			L	1998.576712	1908.27
			L	1998.573973	1931.83
			L	1998.571233	1916.31
			L	1998.563014	1947.86
			L	1998.560274	1970.83
			L	1998.557534	1969.1
			L	1998.554795	2018.46
			L	1998.552055	2013.48
			L	1998.543836	2005.58
			L	1998.541096	2000.9
			L	1998.538356	1974.56
			L	1998.535616	1972.69
			L	1998.532877	1948.32
			L	1998.524658	1938.96
			L	1998.521918	1935.55
			L	1998.519178	1909.41
			L	1998.516438	1912.26
			L	1998.513699	1898.63
			L	1998.50274	1908.75
			L	1998.5	1904.24
			L	1998.496119	1882.73
			L	1998.493379	1880.59
			L	1998.48516	1865.35
			L	1998.48242	1886.33
			L	1998.47968	1858.36
			L	1998.476941	1813.24
			L	1998.474201	1782.56
			L	1998.465982	1783.63
			L	1998.463242	1776.35
			L	1998.460502	1762.19
			L	1998.457763	1728.74
			L	1998.455023	1726.57
			L	1998.446804	1748.46
			L	1998.444064	1776.61
			L	1998.441324	1791.25
			L	1998.438584	1787.66
			L	1998.435845	1783.47
			L	1998.427626	1772.9
			L	1998.424886	1753.33
			L	1998.422146	1771.19
			L	1998.419406	1757.92
			L	1998.416667	1770.37
			L	1998.410046	1800.33
			L	1998.407306	1782.75
			L	1998.404566	1759.63
			L	1998.401826	1813.53
			L	1998.390868	1810.82
			L	1998.388128	1834.49
			L	1998.385388	1850.16
			L	1998.382648	1840.62
			L	1998.379909	1838.53
			L	1998.371689	1869.36
			L	1998.36895	1857.77
			L	1998.36621	1869.85
			L	1998.36347	1847.44
			L	1998.360731	1870.01
			L	1998.352511	1832.17
			L	1998.349772	1858.41
			L	1998.347032	1872.59
			L	1998.344292	1876.26
			L	1998.341553	1880.12
			L	1998.333333	1871.81
			L	1998.329452	1868.12
			L	1998.326712	1837.17
			L	1998.323973	1842.49
			L	1998.321233	1868.96
			L	1998.313014	1878.57
			L	1998.310274	1913.14
			L	1998.307534	1907.46
			L	1998.304795	1894.99
			L	1998.302055	1869.01
			L	1998.293836	1854.5
			L	1998.291096	1857.27
			L	1998.288356	1852.89
			L	1998.285616	1825.4
			L	1998.282877	1824.07
			L	1998.271918	1814.51
			L	1998.269178	1801.11
			L	1998.266438	1823.54
			L	1998.263699	1859.24
			L	1998.255479	1857.35
			L	1998.25274	1847.96
			L	1998.25	1838.15
			L	1998.248858	1823.48
			L	1998.246119	1823.79
			L	1998.2379	1837.11
			L	1998.23516	1822.24
			L	1998.23242	1837.62
			L	1998.22968	1796.84
			L	1998.226941	1784.95
			L	1998.218721	1803.28
			L	1998.215982	1789.55
			L	1998.213242	1772.74
			L	1998.210502	1787.94
			L	1998.207763	1779.41
			L	1998.199543	1775.01
			L	1998.196804	1763.71
			L	1998.194064	1756.03
			L	1998.191324	1741.58
			L	1998.188584	1747.94
			L	1998.180365	1722.59
			L	1998.177626	1714.59
			L	1998.174886	1750.48
			L	1998.172146	1748.96
			L	1998.169406	1778.72
			L	1998.154566	1778.02
			L	1998.151826	1766.71
			L	1998.149087	1746.84
			L	1998.146347	1755.75
			L	1998.143607	1744.21
			L	1998.135388	1731.84
			L	1998.132648	1723.9
			L	1998.129909	1702.79
			L	1998.127169	1721.02
			L	1998.11621	1709.4
			L	1998.11347	1702.89
			L	1998.110731	1708.99
			L	1998.107991	1692.29
			L	1998.105251	1699.92
			L	1998.097032	1675.51
			L	1998.094292	1692.22
			L	1998.091553	1663.46
			L	1998.088813	1654.23
			L	1998.086073	1640.06
			L	1998.079452	1624.53
			L	1998.076712	1609.08
			L	1998.073973	1586.49
			L	1998.071233	1562.23
			L	1998.068493	1578.33
			L	1998.060274	1582.52
			L	1998.057534	1577.88
			L	1998.054795	1583.4
			L	1998.052055	1567.8
			L	1998.041096	1557.69
			L	1998.038356	1545.82
			L	1998.035616	1549.8
			L	1998.032877	1519.62
			L	1998.030137	1482.01
			L	1998.021918	1555.54
			L	1998.019178	1555.91
			L	1998.016438	1574.01
			L	1998.013699	1588.07
			L	1998.010959	1585.77
			L	1998.00274	1574.1
			L	1997.998858	1565.87
			L	1997.996119	1539.55
			L	1997.993379	1521.79
			L	1997.98516	1501.15
			L	1997.97968	1516.66
			L	1997.976941	1531.6
			L	1997.974201	1533.46
			L	1997.965982	1506.86
			L	1997.963242	1548.67
			L	1997.960502	1563.53
			L	1997.957763	1541.25
			L	1997.955023	1540.41
			L	1997.946804	1564.06
			L	1997.944064	1577.55
			L	1997.941324	1611.88
			L	1997.938584	1636.97
			L	1997.935845	1639.39
			L	1997.927626	1608.03
			L	1997.924886	1621.72
			L	1997.922146	1603.99
			L	1997.919406	1625.48
			L	1997.916667	1608.56
			L	1997.907306	1595.84
			L	1997.901826	1593.57
			L	1997.899087	1593.3
			L	1997.896347	1612.94
			L	1997.888128	1636.58
			L	1997.885388	1607.66
			L	1997.882648	1596.29
			L	1997.879909	1614.67
			L	1997.877169	1601.95
			L	1997.86895	1565.68
			L	1997.86621	1554.79
			L	1997.86347	1584.86
			L	1997.860731	1594.45
			L	1997.857991	1609.77
			L	1997.849772	1597.27
			L	1997.847032	1638.14
			L	1997.844292	1639.94
			L	1997.841553	1627.24
			L	1997.838813	1609.62
			L	1997.832192	1594.12
			L	1997.829452	1572.89
			L	1997.826712	1614.59
			L	1997.823973	1484.72
			L	1997.821233	1650.92
			L	1997.813014	1686.07
			L	1997.810274	1708.08
			L	1997.807534	1716.49
			L	1997.804795	1699.76
			L	1997.802055	1675.16
			L	1997.793836	1699.66
			L	1997.791096	1730.85
			L	1997.788356	1715.3
			L	1997.785616	1744.83
			L	1997.782877	1744.88
			L	1997.774658	1739.2
			L	1997.771918	1734.99
			L	1997.769178	1739.91
			L	1997.766438	1725.85
			L	1997.763699	1722.39
			L	1997.755479	1718.17
			L	1997.75274	1693.34
			L	1997.75	1690.79
			L	1997.746119	1691.18
			L	1997.743379	1685.3
			L	1997.73516	1686
			L	1997.73242	1685.78
			L	1997.72968	1700.69
			L	1997.726941	1691.98
			L	1997.724201	1684.31
			L	1997.715982	1668.87
			L	1997.713242	1671.57
			L	1997.710502	1673.66
			L	1997.707763	1643.79
			L	1997.705023	1649.76
			L	1997.696804	1642.98
			L	1997.694064	1635.31
			L	1997.691324	1655.67
			L	1997.688584	1646.59
			L	1997.685845	1641.72
			L	1997.677626	1633.01
			L	1997.674886	1618
			L	1997.672146	1619.96
			L	1997.669406	1595.07
			L	1997.660046	1580
			L	1997.657306	1586.1
			L	1997.654566	1593.73
			L	1997.651826	1596.04
			L	1997.649087	1601.11
			L	1997.640868	1581.68
			L	1997.638128	1626.88
			L	1997.635388	1603.29
			L	1997.632648	1579.38
			L	1997.629909	1563.45
			L	1997.621689	1583.27
			L	1997.61895	1587.12
			L	1997.61621	1594.25
			L	1997.61347	1592.65
			L	1997.610731	1599.16
			L	1997.602511	1612.37
			L	1997.599772	1637.14
			L	1997.597032	1623.24
			L	1997.594292	1610.21
			L	1997.591553	1593.09
			L	1997.583333	1594.67
			L	1997.582192	1591.56
			L	1997.579452	1573.13
			L	1997.576712	1560.47
			L	1997.573973	1573.09
			L	1997.565753	1571.69
			L	1997.563014	1565.87
			L	1997.560274	1571.33
			L	1997.557534	1539
			L	1997.554795	1548.1
			L	1997.546575	1559.5
			L	1997.543836	1581.25
			L	1997.541096	1561.41
			L	1997.538356	1534.57
			L	1997.535616	1506.97
			L	1997.527397	1489.71
			L	1997.524658	1485.67
			L	1997.521918	1491.84
			L	1997.519178	1471.45
			L	1997.516438	1472.61
			L	1997.505479	1464.07
			L	1997.50274	1443.24
			L	1997.5	1442.65
			L	1997.496119	1439.47
			L	1997.4879	1441.29
			L	1997.48516	1442.5
			L	1997.48242	1453.88
			L	1997.47968	1443.93
			L	1997.476941	1444.84
			L	1997.468721	1447.45
			L	1997.465982	1433.36
			L	1997.463242	1433.47
			L	1997.460502	1429.64
			L	1997.457763	1423.74
			L	1997.449543	1411.71
			L	1997.446804	1404.53
			L	1997.444064	1401.14
			L	1997.441324	1410.31
			L	1997.438584	1410.69
			L	1997.430365	1390.13
			L	1997.427626	1385.74
			L	1997.424886	1387.46
			L	1997.422146	1397.49
			L	1997.419406	1407.07
			L	1997.412785	1355.8
			L	1997.410046	1412.49
			L	1997.407306	1411.65
			L	1997.404566	1388
			L	1997.393607	1377.73
			L	1997.390868	1376.18
			L	1997.388128	1373.15
			L	1997.385388	1342.17
			L	1997.382648	1343.32
			L	1997.374429	1347.53
			L	1997.371689	1335.56
			L	1997.36895	1337.34
			L	1997.36621	1343.83
			L	1997.36347	1339.05
			L	1997.355251	1338.8
			L	1997.352511	1317.76
			L	1997.349772	1321.83
			L	1997.347032	1334.45
			L	1997.344292	1311.7
			L	1997.336073	1275.51
			L	1997.333333	1263.93
			L	1997.329452	1238.95
			L	1997.326712	1233.25
			L	1997.323973	1211.87
			L	1997.315753	1224.42
			L	1997.313014	1238
			L	1997.310274	1214.64
			L	1997.307534	1205.23
			L	1997.304795	1221.98
			L	1997.296575	1232.46
			L	1997.293836	1214.1
			L	1997.291096	1209.33
			L	1997.288356	1221.95
			L	1997.285616	1209.04
			L	1997.277397	1224.35
			L	1997.274658	1248.31
			L	1997.271918	1263.95
			L	1997.269178	1253.05
			L	1997.266438	1245.83
			L	1997.258219	1208.65
			L	1997.255479	1199.12
			L	1997.25274	1217.44
			L	1997.25	1211.28
			L	1997.248858	1246.35
			L	1997.2379	1274.83
			L	1997.23516	1252.87
			L	1997.23242	1247.11
			L	1997.22968	1251.07
			L	1997.221461	1263.61
			L	1997.218721	1252.53
			L	1997.215982	1264.35
			L	1997.213242	1282.6
			L	1997.210502	1289.36
			L	1997.202283	1299.73
			L	1997.199543	1302.48
			L	1997.196804	1314.97
			L	1997.194064	1323.91
			L	1997.191324	1312.72
			L	1997.183105	1319.74
			L	1997.180365	1331.46
			L	1997.177626	1322.38
			L	1997.174886	1316.2
			L	1997.172146	1306.21
			L	1997.157306	1310.97
			L	1997.154566	1339.62
			L	1997.151826	1350.17
			L	1997.149087	1349.81
			L	1997.146347	1328.4
			L	1997.138128	1346.46
			L	1997.135388	1362.62
			L	1997.132648	1366.34
			L	1997.129909	1369.16
			L	1997.11895	1370.25
			L	1997.11621	1364.52
			L	1997.11347	1337.48
			L	1997.110731	1342.11
			L	1997.107991	1360.46
			L	1997.099772	1354.91
			L	1997.097032	1351.11
			L	1997.094292	1373.95
			L	1997.091553	1376.7
			L	1997.088813	1383.97
			L	1997.082192	1374.98
			L	1997.079452	1362.05
			L	1997.076712	1359.32
			L	1997.073973	1365.91
			L	1997.071233	1367.41
			L	1997.063014	1375.6
			L	1997.060274	1393.15
			L	1997.057534	1377.85
			L	1997.054795	1363.44
			L	1997.052055	1351.14
			L	1997.043836	1340.61
			L	1997.041096	1340.14
			L	1997.038356	1347.7
			L	1997.035616	1337.38
			L	1997.032877	1335.45
			L	1997.024658	1317.38
			L	1997.021918	1325.23
			L	1997.019178	1329.6
			L	1997.016438	1316.91
			L	1997.013699	1314.34
			L	1997.005479	1288.02
			L	1997.00274	1292.65
			L	1996.998858	1289.24
			L	1996.996119	1295.18
			L	1996.9879	1296.18
			L	1996.98516	1289.74
			L	1996.97968	1280.56
			L	1996.976941	1290.68
			L	1996.968721	1303.03
			L	1996.965982	1292.83
			L	1996.963242	1274.51
			L	1996.960502	1255.28
			L	1996.957763	1289.72
			L	1996.949543	1291.4
			L	1996.946804	1320.55
			L	1996.944064	1300.85
			L	1996.941324	1325.15
			L	1996.938584	1296.18
			L	1996.930365	1275.9
			L	1996.927626	1299.55
			L	1996.924886	1300.92
			L	1996.922146	1303.68
			L	1996.919406	1294.78
			L	1996.910046	1287.97
			L	1996.904566	1281.98
			L	1996.901826	1281.7
			L	1996.899087	1275.41
			L	1996.890868	1262.86
			L	1996.888128	1267.75
			L	1996.885388	1264.77
			L	1996.882648	1253.86
			L	1996.879909	1263.08
			L	1996.871689	1273.06
			L	1996.86895	1260.95
			L	1996.86621	1259.73
			L	1996.86347	1267.38
			L	1996.860731	1258.24
			L	1996.852511	1254.32
			L	1996.849772	1245.65
			L	1996.847032	1230.8
			L	1996.844292	1223.1
			L	1996.841553	1223.47
			L	1996.833333	1223.72
			L	1996.832192	1209.04
			L	1996.829452	1206
			L	1996.826712	1219.94
			L	1996.823973	1225.39
			L	1996.815753	1227.13
			L	1996.813014	1230.92
			L	1996.810274	1219.02
			L	1996.807534	1233.17
			L	1996.804795	1241.95
			L	1996.796575	1242.92
			L	1996.793836	1253.58
			L	1996.791096	1256.73
			L	1996.788356	1267.56
			L	1996.785616	1250.67
			L	1996.777397	1241.97
			L	1996.774658	1235.13
			L	1996.771918	1247.55
			L	1996.769178	1253.41
			L	1996.766438	1247.14
			L	1996.758219	1240.12
			L	1996.755479	1237.25
			L	1996.75274	1224.01
			L	1996.75	1223.73
			L	1996.746119	1229.14
			L	1996.7379	1229.69
			L	1996.73516	1228.29
			L	1996.73242	1219.66
			L	1996.72968	1210.96
			L	1996.726941	1216.69
			L	1996.718721	1213.8
			L	1996.715982	1204.67
			L	1996.713242	1201.18
			L	1996.710502	1204.04
			L	1996.707763	1190.04
			L	1996.699543	1175.85
			L	1996.696804	1156.28
			L	1996.694064	1145.77
			L	1996.691324	1149.16
			L	1996.688584	1140.79
			L	1996.680365	1128.76
			L	1996.677626	1139.35
			L	1996.674886	1143.64
			L	1996.672146	1133.3
			L	1996.662785	1147.71
			L	1996.660046	1152.86
			L	1996.657306	1150.11
			L	1996.654566	1141.71
			L	1996.651826	1144.36
			L	1996.643607	1142.83
			L	1996.640868	1129.98
			L	1996.638128	1122.17
			L	1996.635388	1132
			L	1996.632648	1133.92
			L	1996.624429	1135.77
			L	1996.621689	1132.04
			L	1996.61895	1127.94
			L	1996.61621	1135.46
			L	1996.61347	1136.69
			L	1996.605251	1134.1
			L	1996.602511	1139.15
			L	1996.599772	1132.88
			L	1996.597032	1118.1
			L	1996.594292	1127.91
			L	1996.586073	1109.02
			L	1996.583333	1081.34
			L	1996.582192	1073.66
			L	1996.579452	1072.47
			L	1996.576712	1079.21
			L	1996.568493	1065.84
			L	1996.565753	1049.79
			L	1996.563014	1030.5
			L	1996.560274	1084.61
			L	1996.557534	1096.28
			L	1996.549315	1106.85
			L	1996.546575	1093.74
			L	1996.543836	1070.77
			L	1996.541096	1056.15
			L	1996.538356	1102.52
			L	1996.530137	1111.72
			L	1996.527397	1141.19
			L	1996.524658	1153.24
			L	1996.521918	1154.78
			L	1996.519178	1157.69
			L	1996.510959	1172.81
			L	1996.505479	1191.3
			L	1996.50274	1196.9
			L	1996.5	1185.64
			L	1996.490639	1171.61
			L	1996.4879	1153.7
			L	1996.48516	1171.37
			L	1996.48242	1185.45
			L	1996.47968	1177.93
			L	1996.471461	1174.31
			L	1996.468721	1181.4
			L	1996.465982	1185.33
			L	1996.463242	1207.26
			L	1996.460502	1215.3
			L	1996.452283	1225.15
			L	1996.449543	1236.24
			L	1996.446804	1235.85
			L	1996.444064	1233.45
			L	1996.441324	1231.5
			L	1996.433105	1222.1
			L	1996.430365	1252
			L	1996.427626	1242.73
			L	1996.424886	1242.06
			L	1996.422146	1242.54
			L	1996.415525	1238.97
			L	1996.412785	1226.88
			L	1996.410046	1237.01
			L	1996.407306	1249.6
			L	1996.396347	1249.9
			L	1996.393607	1249.19
			L	1996.390868	1243.45
			L	1996.388128	1250.48
			L	1996.385388	1246
			L	1996.377169	1242.1
			L	1996.374429	1228.97
			L	1996.371689	1236.27
			L	1996.36895	1226.07
			L	1996.36621	1204.33
			L	1996.357991	1193.16
			L	1996.355251	1184.85
			L	1996.352511	1180.74
			L	1996.349772	1188.43
			L	1996.347032	1186.83
			L	1996.338813	1184.44
			L	1996.336073	1199.76
			L	1996.333333	1190.48
			L	1996.329452	1189.4
			L	1996.326712	1186.67
			L	1996.318493	1184.78
			L	1996.315753	1177.99
			L	1996.313014	1171.44
			L	1996.310274	1155.31
			L	1996.307534	1143.08
			L	1996.299315	1141.99
			L	1996.296575	1124.81
			L	1996.293836	1124.35
			L	1996.291096	1118.32
			L	1996.288356	1102.8
			L	1996.280137	1098.61
			L	1996.277397	1105.15
			L	1996.274658	1108.98
			L	1996.271918	1111.26
			L	1996.269178	1106.32
			L	1996.258219	1116.05
			L	1996.255479	1109.71
			L	1996.25274	1107.98
			L	1996.25	1105.77
			L	1996.243379	1097.68
			L	1996.240639	1091.09
			L	1996.2379	1091.34
			L	1996.23516	1085.12
			L	1996.23242	1104.31
			L	1996.224201	1101.82
			L	1996.221461	1102.64
			L	1996.218721	1110.74
			L	1996.215982	1118.02
			L	1996.213242	1102.78
			L	1996.205023	1092.69
			L	1996.202283	1090.87
			L	1996.199543	1079.91
			L	1996.196804	1078.72
			L	1996.194064	1065
			L	1996.185845	1080.82
			L	1996.183105	1092.77
			L	1996.180365	1096.89
			L	1996.177626	1084.24
			L	1996.174886	1088.91
			L	1996.166667	1098.94
			L	1996.160046	1102.17
			L	1996.157306	1109.6
			L	1996.154566	1114.13
			L	1996.151826	1116.53
			L	1996.143607	1118.6
			L	1996.140868	1100.17
			L	1996.138128	1085.12
			L	1996.135388	1085.52
			L	1996.124429	1091.39
			L	1996.121689	1087.59
			L	1996.11895	1089.6
			L	1996.11621	1084.45
			L	1996.11347	1094.84
			L	1996.105251	1093.39
			L	1996.102511	1084.93
			L	1996.099772	1088.87
			L	1996.097032	1084.08
			L	1996.094292	1072.95
			L	1996.086073	1071.65
			L	1996.083333	1058.26
			L	1996.082192	1052.21
			L	1996.079452	1045.35
			L	1996.076712	1042.53
			L	1996.068493	1034.71
			L	1996.065753	1045.17
			L	1996.063014	1032.69
			L	1996.060274	1029.53
			L	1996.057534	1019.72
			L	1996.049315	1009.6
			L	1996.046575	1003.37
			L	1996.043836	987.28
			L	1996.041096	994.31
			L	1996.038356	1009.96
			L	1996.030137	1013.26
			L	1996.027397	999.92
			L	1996.024658	991.93
			L	1996.021918	1031.61
			L	1996.019178	1034.94
			L	1996.010959	1022.41
			L	1996.008219	1047.2
			L	1996.005479	1056.36
			L	1996.00274	1052.83
			L	1995.993379	1042.26
			L	1995.990639	1044.38
			L	1995.9879	1049.9
			L	1995.98516	1047.56
			L	1995.974201	1041.48
			L	1995.971461	1030.24
			L	1995.968721	1032.51
			L	1995.965982	1005.43
			L	1995.963242	1029.12
			L	1995.955023	1041.11
			L	1995.952283	1057.03
			L	1995.949543	1054.46
			L	1995.946804	1061.98
			L	1995.944064	1064.68
			L	1995.935845	1056.43
			L	1995.933105	1061.89
			L	1995.930365	1067.86
			L	1995.927626	1071.24
			L	1995.924886	1057.95
			L	1995.916667	1060.66
			L	1995.912785	1056.77
			L	1995.910046	1052.68
			L	1995.907306	1030.65
			L	1995.904566	1034
			L	1995.896347	1022.84
			L	1995.890868	1027.36
			L	1995.888128	1029.24
			L	1995.885388	1048.07
			L	1995.877169	1045.27
			L	1995.874429	1038.33
			L	1995.871689	1044.16
			L	1995.86895	1054.14
			L	1995.86621	1063.21
			L	1995.857991	1063.72
			L	1995.855251	1057.03
			L	1995.852511	1046
			L	1995.849772	1058.99
			L	1995.847032	1065.63
			L	1995.838813	1059.15
			L	1995.836073	1042.11
			L	1995.833333	1037.3
			L	1995.832192	1043.57
			L	1995.829452	1028.17
			L	1995.821233	1016.41
			L	1995.818493	1026.2
			L	1995.815753	1040.1
			L	1995.813014	1039.53
			L	1995.810274	1035.28
			L	1995.802055	1046.64
			L	1995.799315	1042.8
			L	1995.796575	1045.32
			L	1995.793836	1021.53
			L	1995.791096	1018.33
			L	1995.782877	1020.33
			L	1995.780137	1003.58
			L	1995.777397	992.63
			L	1995.774658	978.64
			L	1995.771918	1006.81
			L	1995.763699	1017.94
			L	1995.760959	1002.07
			L	1995.758219	1017.04
			L	1995.755479	1027.99
			L	1995.75274	1041.39
			L	1995.743379	1047.79
			L	1995.740639	1028.49
			L	1995.7379	1035
			L	1995.73516	1048.04
			L	1995.73242	1053.53
			L	1995.724201	1055.68
			L	1995.721461	1062.73
			L	1995.718721	1063.42
			L	1995.715982	1049.01
			L	1995.713242	1052
			L	1995.705023	1062.94
			L	1995.702283	1068.23
			L	1995.699543	1065.34
			L	1995.696804	1068.7
			L	1995.694064	1060.47
			L	1995.685845	1052.58
			L	1995.683105	1048.48
			L	1995.680365	1040.67
			L	1995.677626	1021.73
			L	1995.666667	1019.42
			L	1995.665525	1013.88
			L	1995.662785	1006.96
			L	1995.660046	1007.86
			L	1995.657306	1020.7
			L	1995.649087	1021.53
			L	1995.646347	1028.26
			L	1995.643607	1027.33
			L	1995.640868	1021.48
			L	1995.638128	1033.02
			L	1995.629909	1032.63
			L	1995.627169	1026.39
			L	1995.624429	1016.19
			L	1995.621689	1014.59
			L	1995.61895	1004.19
			L	1995.610731	1004.08
			L	1995.607991	1005.86
			L	1995.605251	1003.4
			L	1995.602511	997.31
			L	1995.599772	992.78
			L	1995.591553	983.8
			L	1995.588813	980.17
			L	1995.586073	995.11
			L	1995.583333	1001.57
			L	1995.582192	1006.43
			L	1995.573973	1009.99
			L	1995.571233	1002.43
			L	1995.568493	996.77
			L	1995.565753	984.01
			L	1995.563014	964.12
			L	1995.554795	959.25
			L	1995.552055	955.97
			L	1995.549315	988.53
			L	1995.546575	1005.65
			L	1995.543836	1000.73
			L	1995.535616	988.96
			L	1995.532877	989.27
			L	1995.530137	975.9
			L	1995.527397	975.39
			L	1995.524658	970.41
			L	1995.516438	952.9
			L	1995.513699	943.32
			L	1995.510959	937.05
			L	1995.505479	933.99
			L	1995.496119	928.02
			L	1995.493379	921.04
			L	1995.490639	918.08
			L	1995.4879	925.19
			L	1995.48516	938.33
			L	1995.476941	938.65
			L	1995.474201	941.17
			L	1995.471461	931.61
			L	1995.468721	924.11
			L	1995.465982	909.9
			L	1995.457763	904.37
			L	1995.455023	896.33
			L	1995.452283	892.26
			L	1995.449543	890.51
			L	1995.446804	885.55
			L	1995.438584	885.72
			L	1995.435845	882.18
			L	1995.433105	880.41
			L	1995.430365	882.83
			L	1995.427626	875.25
			L	1995.419406	867.12
			L	1995.416667	865.67
			L	1995.415525	859.17
			L	1995.412785	872.77
			L	1995.401826	876.26
			L	1995.399087	877.74
			L	1995.396347	882.9
			L	1995.393607	872.01
			L	1995.390868	865.57
			L	1995.382648	862.28
			L	1995.379909	872.53
			L	1995.377169	869.5
			L	1995.374429	863.39
			L	1995.371689	859.74
			L	1995.36347	853.74
			L	1995.360731	847.12
			L	1995.357991	850.48
			L	1995.355251	850.42
			L	1995.352511	843.48
			L	1995.344292	849.07
			L	1995.341553	851.5
			L	1995.338813	842.75
			L	1995.336073	841.93
			L	1995.333333	844.72
			L	1995.323973	841.66
			L	1995.321233	837.15
			L	1995.318493	830.47
			L	1995.315753	829.62
			L	1995.313014	823.25
			L	1995.304795	821.39
			L	1995.302055	817.89
			L	1995.299315	825.07
			L	1995.296575	833.37
			L	1995.293836	835.15
			L	1995.282877	829.06
			L	1995.280137	825.49
			L	1995.277397	824.12
			L	1995.274658	814.44
			L	1995.266438	814.84
			L	1995.263699	816.93
			L	1995.260959	813.68
			L	1995.258219	817.06
			L	1995.255479	816.06
			L	1995.248858	813.24
			L	1995.246119	820.65
			L	1995.243379	826.1
			L	1995.240639	822.91
			L	1995.2379	817.88
			L	1995.22968	812.96
			L	1995.226941	809.3
			L	1995.224201	808.65
			L	1995.221461	811.06
			L	1995.218721	808.35
			L	1995.210502	811.03
			L	1995.207763	807.18
			L	1995.205023	807.98
			L	1995.202283	804.46
			L	1995.199543	802.22
			L	1995.191324	795.96
			L	1995.188584	796.48
			L	1995.185845	793.05
			L	1995.183105	797.87
			L	1995.180365	796.53
			L	1995.172146	793.21
			L	1995.169406	792.4
			L	1995.166667	794.33
			L	1995.157306	785.53
			L	1995.154566	789.55
			L	1995.146347	790.8
			L	1995.143607	789.26
			L	1995.140868	783.96
			L	1995.138128	787.73
			L	1995.127169	791.99
			L	1995.124429	796.02
			L	1995.121689	790.76
			L	1995.11895	790.14
			L	1995.11621	789.7
			L	1995.107991	786.41
			L	1995.105251	785.04
			L	1995.102511	780.19
			L	1995.099772	779.79
			L	1995.097032	772.82
			L	1995.088813	766.51
			L	1995.086073	758.16
			L	1995.083333	756.68
			L	1995.082192	752.85
			L	1995.079452	759.63
			L	1995.071233	758.86
			L	1995.068493	761.05
			L	1995.065753	759.69
			L	1995.063014	760.52
			L	1995.060274	759.32
			L	1995.052055	767.99
			L	1995.049315	772.34
			L	1995.046575	773.01
			L	1995.043836	769.17
			L	1995.041096	762.3
			L	1995.032877	758.36
			L	1995.030137	755.66
			L	1995.027397	758.14
			L	1995.024658	754.27
			L	1995.021918	750.19
			L	1995.013699	746.27
			L	1995.010959	746.87
			L	1995.008219	744.77
			L	1995.005479	751.31
			L	1994.996119	749.26
			L	1994.993379	742.97
			L	1994.990639	746.39
			L	1994.9879	743.6
			L	1994.976941	739.03
			L	1994.974201	737.26
			L	1994.971461	729.72
			L	1994.968721	729.57
			L	1994.965982	728.75
			L	1994.957763	730.83
			L	1994.955023	727.04
			L	1994.952283	719.1
			L	1994.949543	719.92
			L	1994.946804	719.24
			L	1994.938584	719.26
			L	1994.935845	734.74
			L	1994.933105	740.24
			L	1994.930365	744.61
			L	1994.927626	745.53
			L	1994.919406	741.99
			L	1994.916667	748.83
			L	1994.912785	751.44
			L	1994.910046	746.47
			L	1994.907306	743.08
			L	1994.899087	737.22
			L	1994.893607	738.33
			L	1994.890868	756.57
			L	1994.888128	767.03
			L	1994.879909	766.57
			L	1994.877169	770.35
			L	1994.874429	769.73
			L	1994.871689	768.73
			L	1994.86895	763.61
			L	1994.860731	763.94
			L	1994.857991	766.5
			L	1994.855251	770.77
			L	1994.852511	762.61
			L	1994.849772	766.22
			L	1994.841553	772.7
			L	1994.838813	772.61
			L	1994.836073	772.26
			L	1994.833333	776.25
			L	1994.832192	775.87
			L	1994.823973	767.78
			L	1994.821233	763.78
			L	1994.818493	759.07
			L	1994.815753	757.23
			L	1994.813014	766.22
			L	1994.804795	767.44
			L	1994.802055	771.83
			L	1994.799315	765.45
			L	1994.796575	766.74
			L	1994.793836	767.07
			L	1994.785616	768.35
			L	1994.782877	770.1
			L	1994.780137	765.32
			L	1994.777397	758.37
			L	1994.774658	751.33
			L	1994.766438	745.23
			L	1994.763699	747.95
			L	1994.760959	746.19
			L	1994.758219	761.04
			L	1994.755479	764.47
			L	1994.746119	760.34
			L	1994.743379	759.7
			L	1994.740639	756.12
			L	1994.7379	755.14
			L	1994.73516	756.95
			L	1994.726941	759.88
			L	1994.724201	761.8
			L	1994.721461	767.13
			L	1994.718721	775.82
			L	1994.715982	778.13
			L	1994.707763	777.73
			L	1994.705023	768.41
			L	1994.702283	766.28
			L	1994.699543	761.86
			L	1994.696804	763.56
			L	1994.688584	766.21
			L	1994.685845	764.74
			L	1994.683105	760.51
			L	1994.680365	759.01
			L	1994.669406	759.52
			L	1994.666667	763
			L	1994.665525	765.73
			L	1994.662785	762.7
			L	1994.660046	763.44
			L	1994.651826	756.5
			L	1994.649087	752.19
			L	1994.646347	748.13
			L	1994.643607	743.32
			L	1994.640868	741.76
			L	1994.632648	743.46
			L	1994.629909	742.27
			L	1994.627169	737.01
			L	1994.624429	733.39
			L	1994.621689	732.11
			L	1994.61347	729.43
			L	1994.610731	727.64
			L	1994.607991	722.87
			L	1994.605251	720.46
			L	1994.602511	717.73
			L	1994.594292	718.66
			L	1994.591553	724.41
			L	1994.588813	725.28
			L	1994.586073	725.33
			L	1994.583333	722.84
			L	1994.576712	713.93
			L	1994.573973	712.06
			L	1994.571233	715.8
			L	1994.568493	717.1
			L	1994.565753	716.66
			L	1994.557534	716.76
			L	1994.554795	713.32
			L	1994.552055	719.57
			L	1994.549315	722.7
			L	1994.546575	722.3
			L	1994.538356	721.64
			L	1994.535616	720.35
			L	1994.532877	710.88
			L	1994.530137	707.32
			L	1994.527397	708.46
			L	1994.519178	705.6
			L	1994.516438	701.48
			L	1994.513699	702.47
			L	1994.510959	706.73
			L	1994.5	706.29
			L	1994.496119	705.75
			L	1994.493379	702.58
			L	1994.490639	704.13
			L	1994.4879	694.16
			L	1994.47968	699.78
			L	1994.476941	712.91
			L	1994.474201	710.52
			L	1994.471461	716.42
			L	1994.468721	726.45
			L	1994.460502	735.45
			L	1994.457763	733.45
			L	1994.455023	738
			L	1994.452283	733.89
			L	1994.449543	733.13
			L	1994.441324	730.06
			L	1994.438584	730.11
			L	1994.435845	737.96
			L	1994.433105	742.47
			L	1994.430365	743.29
			L	1994.422146	738.6
			L	1994.419406	737.65
			L	1994.416667	733.18
			L	1994.415525	730.83
			L	1994.404566	730.51
			L	1994.401826	733.87
			L	1994.399087	729.06
			L	1994.396347	727.89
			L	1994.393607	727.6
			L	1994.385388	727.21
			L	1994.382648	723.26
			L	1994.379909	715.5
			L	1994.377169	708.41
			L	1994.374429	715.23
			L	1994.36621	717.32
			L	1994.36347	721.17
			L	1994.360731	724.54
			L	1994.357991	727.4
			L	1994.355251	729.96
			L	1994.347032	732.19
			L	1994.344292	741.36
			L	1994.341553	739.38
			L	1994.338813	741.85
			L	1994.336073	733.97
			L	1994.326712	729.73
			L	1994.323973	736.03
			L	1994.318493	733.53
			L	1994.315753	723.85
			L	1994.307534	721.84
			L	1994.304795	709.62
			L	1994.302055	716.32
			L	1994.299315	722.35
			L	1994.296575	731.12
			L	1994.288356	728.22
			L	1994.285616	727.38
			L	1994.282877	740.48
			L	1994.280137	746.17
			L	1994.277397	747.5
			L	1994.269178	753.23
			L	1994.266438	750.97
			L	1994.263699	751.55
			L	1994.260959	739.55
			L	1994.258219	723.06
			L	1994.248858	743.92
			L	1994.246119	746.13
			L	1994.243379	770.41
			L	1994.240639	780.01
			L	1994.23242	785.81
			L	1994.22968	793.65
			L	1994.226941	798.88
			L	1994.224201	795.91
			L	1994.221461	800.16
			L	1994.213242	799.21
			L	1994.210502	800.39
			L	1994.207763	794.81
			L	1994.205023	794.46
			L	1994.202283	790.47
			L	1994.194064	786.66
			L	1994.191324	793.87
			L	1994.188584	792.96
			L	1994.185845	794.09
			L	1994.183105	793.63
			L	1994.174886	786.9
			L	1994.172146	784.6
			L	1994.169406	773.01
			L	1994.166667	792.1
			L	1994.157306	788.24
			L	1994.149087	781.71
			L	1994.146347	780.76
			L	1994.143607	792.64
			L	1994.140868	787.41
			L	1994.129909	791.47
			L	1994.127169	796.14
			L	1994.124429	792.64
			L	1994.121689	786.38
			L	1994.11895	783.61
			L	1994.110731	781.03
			L	1994.107991	788.15
			L	1994.105251	783.48
			L	1994.102511	780.27
			L	1994.099772	770.64
			L	1994.091553	797.24
			L	1994.088813	798.44
			L	1994.086073	796.96
			L	1994.083333	798.42
			L	1994.082192	797.77
			L	1994.073973	795.03
			L	1994.071233	789.13
			L	1994.068493	785.13
			L	1994.065753	789.98
			L	1994.063014	793.89
			L	1994.054795	794.31
			L	1994.052055	790.32
			L	1994.049315	789.64
			L	1994.046575	791.94
			L	1994.043836	791.68
			L	1994.035616	789.99
			L	1994.032877	784.36
			L	1994.030137	788.2
			L	1994.027397	785.93
			L	1994.024658	783.05
			L	1994.016438	779.29
			L	1994.013699	780.36
			L	1994.010959	775.23
			L	1994.008219	771.43
			L	1994.005479	774.11


V 0 z" />
		<!-- Vertical ticks -->
		<g stroke="black">
			<use xlink:href="#vertical_line" x="1994" y="0" />
			<use xlink:href="#vertical_line" x="1995" y="0" />
			<use xlink:href="#vertical_line" x="1996" y="0" />
			<use xlink:href="#vertical_line" x="1997" y="0" />
			<use xlink:href="#vertical_line" x="1998" y="0" />
			<use xlink:href="#vertical_line" x="1999" y="0" />
			<use xlink:href="#vertical_line" x="2000" y="0" />
			<use xlink:href="#vertical_line" x="2001" y="0" />
			<use xlink:href="#vertical_line" x="2002" y="0" />
			<use xlink:href="#vertical_line" x="2003" y="0" />
			<use xlink:href="#vertical_line" x="2004" y="0" />
			<use xlink:href="#vertical_line" x="2005" y="0" />
		</g>
		<!-- Horizontal gridlines -->
		<g stroke="#ccc">
			<use xlink:href="#horizontal_line" x="0" y="0" />
			<use xlink:href="#horizontal_line" x="0" y="1000" />
			<use xlink:href="#horizontal_line" x="0" y="2000" />
			<use xlink:href="#horizontal_line" x="0" y="3000" />
			<use xlink:href="#horizontal_line" x="0" y="4000" />
			<use xlink:href="#horizontal_line" x="0" y="5000" />
		</g>
	</g>
		<!-- Text can't be scaled or it goes strange. Its location must be calculated directly. -->
	<!-- Y-axis -->
	<g id="percentage_numbers" transform="translate(-10 0)" text-anchor="end">

		<text x="0" y="251">1000</text>
		<text x="0" y="206">2000</text>
		<text x="0" y="161">3000</text>
		<text x="0" y="116">4000</text>
		<text x="0" y="71">5000</text>
	</g>
	<!-- X-axis -->
	<g id="x_axis_numbers" transform="translate(0 59)" text-anchor="middle" font-size="80%">
		<text x="0" y="250">1994</text>
		<text x="45" y="250">1995</text>
		<text x="90" y="250">1996</text>
		<text x="135" y="250">1997</text>
		<text x="180" y="250">1998</text>
		<text x="225" y="250">1999</text>
		<text x="270" y="250">2000</text>
		<text x="315" y="250">2001</text>
		<text x="360" y="250">2002</text>
		<text x="405" y="250">2003</text>
		<text x="450" y="250">2004</text>
		<text x="493" y="250">2005</text>
	</g>
</g>
</svg>